# xmcd CD database file
#
# Track frame offsets:
#	150
#	15541
#	28182
#	49319
#	62508
#	83163
#	105432
#	123402
#	146244
#	160015
#	180730
#	196323
#
# Disc length: 2850 seconds
#
# Revision: 0
# Processed by: cddbd v1.4PL0 Copyright (c) Steve Scherf et al.
# Submitted via: CDex 1.40Beta9
#
DISCID=9d0b200c
DTITLE=Erik Moll - Come What May
DYEAR=2003
DGENRE=Country
TTITLE0=Long Before I Even Met You
TTITLE1=Eve Picked The Apple
TTITLE2=Long Lost Friend
TTITLE3=Real Live Woman
TTITLE4=Ancestors
TTITLE5=Terlingua Night
TTITLE6=Two Together
TTITLE7=Un Your Eyes
TTITLE8=Hide Your Heart
TTITLE9=Burnin' Moonlight
TTITLE10=Part Of The Plan
TTITLE11=Come What May
EXTD=YEAR: 2003 ID3G: 2
EXTT0=
EXTT1=
EXTT2=
EXTT3=
EXTT4=
EXTT5=
EXTT6=
EXTT7=
EXTT8=
EXTT9=
EXTT10=
EXTT11=
PLAYORDER=
